<?xml version="1.0" encoding="UTF-8"?>
<!DOCTYPE svg PUBLIC "-//W3C//DTD SVG 1.1//EN" "http://www.w3.org/Graphics/SVG/1.1/DTD/svg11.dtd">
<!-- Creator: CorelDRAW 2018 (64-Bit) -->
<svg xmlns="http://www.w3.org/2000/svg" xml:space="preserve" width="151.272mm" height="28.6512mm" version="1.1" style="shape-rendering:geometricPrecision; text-rendering:geometricPrecision; image-rendering:optimizeQuality; fill-rule:evenodd; clip-rule:evenodd"
viewBox="0 0 14816.15 2806.2"
 xmlns:xlink="http://www.w3.org/1999/xlink">
 <defs>
  <style type="text/css">
   <![CDATA[
    .fil0 {fill:black}
    .fil1 {fill:black;fill-rule:nonzero}
   ]]>
  </style>
 </defs>
 <g id="图层_x0020_1">
  <metadata id="CorelCorpID_0Corel-Layer"/>
  <path class="fil0" d="M4219.09 0c774.9,0 1403.1,628.19 1403.1,1403.1 0,774.91 -628.2,1403.1 -1403.1,1403.1 -774.91,0 -1403.1,-628.19 -1403.1,-1403.1 0,-774.91 628.19,-1403.1 1403.1,-1403.1zm0 486.12c506.45,0 916.98,410.53 916.98,916.98 0,506.45 -410.53,916.98 -916.98,916.98 -506.45,0 -916.98,-410.53 -916.98,-916.98 0,-506.45 410.53,-916.98 916.98,-916.98z"/>
  <polygon class="fil1" points="2123.97,2806.2 1592.93,2806.2 1592.93,1637.01 530.94,1637.01 530.94,2806.2 -0,2806.2 -0,43.38 530.94,43.38 530.94,1106.06 1592.93,1106.06 1592.93,43.08 2123.97,43.51 "/>
  <path class="fil1" d="M8442.05 2806.2l-408.99 0 -1179.76 -1739.95 0 1739.95 -517.07 0 0 -2755.29 416.22 0 1189.11 1652.19 -15.7 -1659.6c172.08,0 344.12,0 516.19,0l0 2762.7z"/>
  <path class="fil1" d="M12662.67 43.51l1160.97 0c277.29,0 510.13,179.1 601.4,284.84 76.61,88.73 206.53,310.56 206.53,558.4 0,141.46 -16,365.48 -112.86,525.64 -90.16,149.07 -272.71,317.74 -481.27,368.08l778.7 1025.74 -621.5 0 -1038.07 -1205.63 0 1205.63 -493.91 0 0 -2762.7zm531.5 478.77l0 810.69 454.19 0c315.35,0 461.97,-190.52 466.75,-411.14 4.31,-201.31 -205.25,-400.78 -416.14,-400.45l-504.8 0.9z"/>
  <path class="fil0" d="M10559.19 0c774.91,0 1403.1,628.19 1403.1,1403.1 0,774.91 -628.19,1403.1 -1403.1,1403.1 -774.91,0 -1403.1,-628.19 -1403.1,-1403.1 0,-774.91 628.19,-1403.1 1403.1,-1403.1zm0 486.12c506.45,0 916.98,410.53 916.98,916.98 0,506.45 -410.53,916.98 -916.98,916.98 -506.45,0 -916.98,-410.53 -916.98,-916.98 0,-506.45 410.53,-916.98 916.98,-916.98z"/>
 </g>
</svg>
